<svg version="1.1" viewBox="0.0 0.0 56.69291338582677 37.79527559055118" fill="none" stroke="none" stroke-linecap="square" stroke-miterlimit="10" xmlns:xlink="http://www.w3.org/1999/xlink" xmlns="http://www.w3.org/2000/svg"><clipPath id="p.0"><path d="m0 0l56.692913 0l0 37.795277l-56.692913 0l0 -37.795277z" clip-rule="nonzero"/></clipPath><g clip-path="url(#p.0)"><path fill="#ffffff" d="m0 0l56.692913 0l0 37.795277l-56.692913 0z" fill-rule="evenodd"/><path fill="#000000" fill-opacity="0.0" d="m6.61811 29.584892c2.485127 -3.7874012 9.634733 -21.793964 14.910761 -22.724411c5.2760277 -0.93044615 11.987753 15.772965 16.745405 17.141731c4.757656 1.3687668 9.833771 -7.4409447 11.800526 -8.929133" fill-rule="evenodd"/><path stroke="#595959" stroke-width="1.0" stroke-linejoin="round" stroke-linecap="butt" d="m6.61811 29.584892c2.485127 -3.7874012 9.634733 -21.793964 14.910761 -22.724411c5.2760277 -0.93044615 11.987753 15.772965 16.745405 17.141731c4.757656 1.3687668 9.833771 -7.4409447 11.800526 -8.929133" fill-rule="evenodd"/><path fill="#000000" fill-opacity="0.0" d="m-4.3464565 20.036745l19.086613 0l0 24.25197l-19.086613 0z" fill-rule="evenodd"/><path fill="#595959" d="m6.7160435 31.20487l-0.28125 0.265625l-0.34375 0.34375l0.640625 0.8281269q0.046875 0.0625 0.046875 0.125q0 0.078125 -0.0625 0.140625q-0.0625 0.0625 -0.140625 0.0625q-0.0625 0 -0.125 -0.078125q-0.1875 -0.21875 -0.640625 -0.8125l-0.375 0.390625q-0.109375 0.109375 -0.34375 0.328125q-0.0625 0.078125 -0.125 0.078125q-0.078125 0 -0.140625 -0.0625q-0.046875 -0.0625 -0.046875 -0.140625q0 -0.0625 0.046875 -0.125q0.046875 -0.0625 0.171875 -0.171875q0.125 -0.109375 0.171875 -0.15625l0.421875 -0.4375019l-0.265625 -0.375q-0.15625 -0.21875 -0.265625 -0.3125q-0.078125 -0.078125 -0.078125 -0.15625q0 -0.078125 0.046875 -0.125q0.0625 -0.0625 0.140625 -0.0625q0.109375 0 0.34375 0.296875l0.34375 0.46875l0.375 -0.359375q0.25 -0.21875 0.328125 -0.34375q0.0625 -0.09375 0.15625 -0.09375q0.0625 0 0.125 0.0625q0.0625 0.046875 0.0625 0.125q0 0.109375 -0.1875 0.296875z" fill-rule="nonzero"/><path fill="#000000" fill-opacity="0.0" d="m39.267715 20.036745l19.086617 0l0 24.25197l-19.086617 0z" fill-rule="evenodd"/><path fill="#595959" d="m50.236465 31.126745l-0.671875 1.4687519q-0.25 0.53125 -0.375 0.890625l-0.140625 0.375q-0.046875 0.140625 -0.171875 0.140625q-0.078125 0 -0.140625 -0.046875q-0.0625 -0.046875 -0.0625 -0.140625q0 -0.1875 0.421875 -1.125l-0.6875 -1.3437519l-0.09375 -0.140625q-0.0625 -0.09375 -0.0625 -0.15625q0 -0.078125 0.0625 -0.140625q0.0625 -0.0625 0.140625 -0.0625q0.09375 0 0.140625 0.078125q0.328125 0.453125 0.71875 1.3125019l0.28125 -0.6875019q0.15625 -0.34375 0.3125 -0.59375q0.0625 -0.109375 0.15625 -0.109375q0.078125 0 0.140625 0.0625q0.0625 0.046875 0.0625 0.125q0 0.046875 -0.03125 0.09375z" fill-rule="nonzero"/><path fill="#000000" fill-opacity="0.0" d="m49.90551 14.934383l0 14.834646" fill-rule="evenodd"/><path stroke="#00ff00" stroke-width="1.0" stroke-linejoin="round" stroke-linecap="butt" stroke-dasharray="1.0,3.0" d="m49.90551 14.934383l0 14.834646" fill-rule="evenodd"/><path fill="#000000" fill-opacity="0.0" d="m21.776903 7.110236l0 22.362206" fill-rule="evenodd"/><path stroke="#00ff00" stroke-width="1.0" stroke-linejoin="round" stroke-linecap="butt" stroke-dasharray="1.0,3.0" d="m21.776903 7.110236l0 22.362206" fill-rule="evenodd"/><path fill="#000000" fill-opacity="0.0" d="m11.199475 20.036745l19.086613 0l0 24.25197l-19.086613 0z" fill-rule="evenodd"/><path fill="#595959" d="m22.0901 31.29862q-0.1875 0.203125 -0.453125 0.609375q-0.3125 0.4531269 -0.453125 0.6406269q0.203125 0 0.34375 0q0.078125 0 0.234375 0.03125q0.15625 0.015625 0.21875 0.015625q0.09375 0 0.140625 0.0625q0.0625 0.0625 0.0625 0.140625q0 0.09375 -0.0625 0.140625q-0.046875 0.0625 -0.140625 0.0625q-0.0625 0 -0.21875 -0.03125q-0.15625 -0.03125 -0.234375 -0.03125q-0.4375 0 -0.828125 0.078125q-0.046875 0.015625 -0.078125 0.015625q-0.1875 0 -0.1875 -0.171875q0 -0.09375 0.109375 -0.1875q0.5 -0.46875 1.109375 -1.4375019q-0.265625 0.015625 -0.390625 0.015625q-0.28125 0 -0.59375 -0.046875q-0.171875 -0.015625 -0.171875 -0.1875q0 -0.09375 0.046875 -0.140625q0.0625 -0.0625 0.140625 -0.0625q0.09375 0 0.28125 0.03125q0.203125 0.015625 0.296875 0.015625q0.140625 0 0.40625 -0.015625q0.265625 -0.03125 0.390625 -0.03125q0.171875 0 0.171875 0.140625q0 0.15625 -0.140625 0.34375z" fill-rule="nonzero"/></g></svg>