<svg version="1.1" viewBox="0.0 0.0 56.69291338582677 37.79527559055118" fill="none" stroke="none" stroke-linecap="square" stroke-miterlimit="10" xmlns:xlink="http://www.w3.org/1999/xlink" xmlns="http://www.w3.org/2000/svg"><clipPath id="p.0"><path d="m0 0l56.692913 0l0 37.795277l-56.692913 0l0 -37.795277z" clip-rule="nonzero"/></clipPath><g clip-path="url(#p.0)"><path fill="#ffffff" d="m0 0l56.692913 0l0 37.795277l-56.692913 0z" fill-rule="evenodd"/><path fill="#000000" fill-opacity="0.0" d="m6.61811 29.584892c2.485127 -3.7874012 9.634733 -21.793964 14.910761 -22.724411c5.2760277 -0.93044615 11.987753 15.772965 16.745405 17.141731c4.757656 1.3687668 9.833771 -7.4409447 11.800526 -8.929133" fill-rule="evenodd"/><path stroke="#595959" stroke-width="1.0" stroke-linejoin="round" stroke-linecap="butt" d="m6.61811 29.584892c2.485127 -3.7874012 9.634733 -21.793964 14.910761 -22.724411c5.2760277 -0.93044615 11.987753 15.772965 16.745405 17.141731c4.757656 1.3687668 9.833771 -7.4409447 11.800526 -8.929133" fill-rule="evenodd"/><path fill="#000000" fill-opacity="0.0" d="m-4.3464565 20.036745l19.086613 0l0 24.25197l-19.086613 0z" fill-rule="evenodd"/><path fill="#595959" d="m6.9347935 32.111122q0.0625 0 0.078125 0.046875q0.03125 0.046875 0.03125 0.125q0 0.140625 -0.0625 0.25q-0.234375 0.359375 -0.671875 0.359375q-0.1875 0 -0.34375 -0.0625q-0.140625 -0.078125 -0.234375 -0.21875q-0.21875 0.28125 -0.53125 0.28125q-0.21875 0 -0.359375 -0.125q-0.125 -0.125 -0.125 -0.34375q0 -0.203125 0.09375 -0.328125q0.09375 -0.1250019 0.265625 -0.1250019q0.140625 0 0.140625 0.10937691q0 0.03125 0 0.109375l-0.015625 0.15625q0 0.125 0.09375 0.125q0.078125 0 0.140625 -0.09375q0.078125 -0.09375 0.125 -0.25q0.046875 -0.1562519 0.046875 -0.3437519q0 -0.140625 -0.03125 -0.234375q-0.03125 -0.09375 -0.09375 -0.09375q-0.046875 0 -0.0625 0.015625q-0.015625 0.015625 -0.03125 0.078125q-0.03125 0.0625 -0.078125 0.109375q-0.03125 0.03125 -0.125 0.03125q-0.09375 0 -0.15625 -0.0625q-0.046875 -0.0625 -0.046875 -0.1875q0 -0.203125 0.125 -0.3125q0.125 -0.125 0.328125 -0.125q0.15625 0 0.296875 0.078125q0.140625 0.078125 0.203125 0.234375q0.125 -0.15625 0.265625 -0.234375q0.15625 -0.078125 0.3125 -0.078125q0.15625 0 0.234375 0.078125q0.078125 0.0625 0.078125 0.21875q0 0.1875 -0.078125 0.296875q-0.0625 0.09375 -0.15625 0.09375q-0.078125 0 -0.125 -0.03125q-0.03125 -0.046875 -0.046875 -0.109375q0 -0.046875 -0.015625 -0.0625q-0.015625 -0.03125 -0.0625 -0.03125q-0.046875 0 -0.109375 0.09375q-0.046875 0.078125 -0.09375 0.234375q-0.03125 0.140625 -0.03125 0.2968769q0 0.1875 0.078125 0.296875q0.09375 0.109375 0.203125 0.109375q0.21875 0 0.4375 -0.328125q0.046875 -0.046875 0.109375 -0.046875z" fill-rule="nonzero"/><path fill="#000000" fill-opacity="0.0" d="m39.267715 20.036745l19.086617 0l0 24.25197l-19.086617 0z" fill-rule="evenodd"/><path fill="#595959" d="m49.861465 31.01737q0.09375 0 0.125 0.03125q0.03125 0.015625 0.03125 0.0625q0 0.109375 -0.09375 0.6875q-0.09375 0.5625019 -0.109375 0.6718769q-0.15625 1.03125 -0.421875 1.625q-0.25 0.59375 -0.6875 0.59375q-0.203125 0 -0.328125 -0.125q-0.125 -0.125 -0.125 -0.328125q0 -0.1875 0.078125 -0.390625q0.09375 -0.1875 0.328125 -0.4375q0.234375 -0.25 0.65625 -0.578125l0.015625 -0.09375q0.03125 -0.15625 0.0625 -0.421875q-0.078125 0.28125 -0.21875 0.4375q-0.140625 0.140625 -0.3125 0.140625q-0.171875 0 -0.296875 -0.15625q-0.109375 -0.171875 -0.109375 -0.421875q0 -0.296875 0.03125 -0.5468769q0.046875 -0.25 0.140625 -0.53125q0.046875 -0.125 0.109375 -0.171875q0.078125 -0.046875 0.234375 -0.046875q0.09375 0 0.125 0.03125q0.03125 0.015625 0.03125 0.078125q0 0.03125 -0.046875 0.21875q-0.03125 0.140625 -0.0625 0.265625q-0.03125 0.15625 -0.0625 0.3125q-0.015625 0.1562519 -0.015625 0.2500019q0 0.140625 0.078125 0.140625q0.0625 0 0.15625 -0.109375q0.09375 -0.125 0.1875 -0.3593769q0.109375 -0.25 0.203125 -0.609375q0.03125 -0.125 0.09375 -0.171875q0.0625 -0.046875 0.203125 -0.046875zm-1.109375 3.296877q0.109375 0 0.234375 -0.234375q0.125 -0.234375 0.234375 -0.78125q-0.296875 0.265625 -0.4375 0.46875q-0.140625 0.21875 -0.140625 0.390625q0 0.0625 0.015625 0.109375q0.03125 0.046875 0.09375 0.046875z" fill-rule="nonzero"/><path fill="#000000" fill-opacity="0.0" d="m49.90551 14.934383l0 14.834646" fill-rule="evenodd"/><path stroke="#00ff00" stroke-width="1.0" stroke-linejoin="round" stroke-linecap="butt" stroke-dasharray="1.0,3.0" d="m49.90551 14.934383l0 14.834646" fill-rule="evenodd"/><path fill="#000000" fill-opacity="0.0" d="m21.776903 7.110236l0 22.362206" fill-rule="evenodd"/><path stroke="#00ff00" stroke-width="1.0" stroke-linejoin="round" stroke-linecap="butt" stroke-dasharray="1.0,3.0" d="m21.776903 7.110236l0 22.362206" fill-rule="evenodd"/><path fill="#000000" fill-opacity="0.0" d="m11.199475 20.036745l19.086613 0l0 24.25197l-19.086613 0z" fill-rule="evenodd"/><path fill="#595959" d="m21.05885 31.39237q-0.015625 0.203125 -0.015625 0.3125q0 0.28125 0.03125 0.4531269q0.03125 0.15625 0.09375 0.234375q0.078125 0.0625 0.203125 0.0625q0.0625 0 0.140625 -0.03125q0.09375 -0.046875 0.171875 -0.109375q0.046875 -0.046875 0.078125 -0.046875q0.046875 0 0.078125 0.0625q0.03125 0.046875 0.03125 0.125q0 0.078125 -0.03125 0.15625q-0.03125 0.0625 -0.078125 0.109375q-0.21875 0.171875 -0.484375 0.171875q-0.375 0 -0.546875 -0.3125q-0.171875 -0.3125 -0.171875 -0.8281269q0 -0.171875 0 -0.359375l-0.15625 0q-0.109375 0 -0.15625 -0.046875q-0.046875 -0.046875 -0.046875 -0.140625q0 -0.21875 0.1875 -0.21875l0.21875 0q0.078125 -0.4375 0.21875 -0.796875q0.140625 -0.375 0.328125 -0.578125q0.203125 -0.21875 0.4375 -0.21875q0.15625 0 0.25 0.140625q0.109375 0.140625 0.109375 0.375q0 0.609375 -0.53125 1.078125l0.453125 0q0.0625 0 0.09375 0.03125q0.03125 0.015625 0.03125 0.09375q0 0.28125 -0.453125 0.28125l-0.484375 0zm0.421875 -1.625q-0.0625 0 -0.140625 0.15625q-0.078125 0.140625 -0.140625 0.40625q-0.0625 0.265625 -0.109375 0.59375q0.234375 -0.203125 0.34375 -0.453125q0.125 -0.25 0.125 -0.46875q0 -0.234375 -0.078125 -0.234375z" fill-rule="nonzero"/></g></svg>
